<?xml version="1.0" standalone="no"?>
 <!DOCTYPE svg PUBLIC "-//W3C//DTD SVG 1.1//EN" 
 "http://www.w3.org/Graphics/SVG/1.1/DTD/svg11.dtd"> 
<svg
  xmlns:svg="http://www.w3.org/2000/svg"
  xmlns="http://www.w3.org/2000/svg"
  xmlns:xlink="http://www.w3.org/1999/xlink"
  version="1.1"
  width="297.002mm" height="210.007mm" viewBox="0.000 0.000 297.002 210.007">
<title>SVG Image created as Gaggimate-44.svg date 2024/11/24 17:58:43 </title>
  <desc>Image generated by PCBNEW </desc>
<g style="fill:#000000; fill-opacity:1.000;stroke:#000000; stroke-opacity:1.000;
stroke-linecap:round; stroke-linejoin:round;"
 transform="translate(0 0) scale(1 1)">
</g>
<g style="fill:none; 
stroke:#000000; stroke-width:0.150; stroke-opacity:1; 
stroke-linecap:round; stroke-linejoin:round;">
<path d="M177.002 166.007
L285.002 166.007
L285.002 198.007
L177.002 198.007
L177.002 166.007
" />
</g>
<g style="fill:none; 
stroke:#000000; stroke-width:0.150; stroke-opacity:1; 
stroke-linecap:round; stroke-linejoin:round;">
<path d="M10.000 10.000
L287.002 10.000
L287.002 200.007
L10.000 200.007
L10.000 10.000
" />
</g>
<g style="fill:none; 
stroke:#000000; stroke-width:0.150; stroke-opacity:1; 
stroke-linecap:round; stroke-linejoin:round;">
<path d="M12.000 12.000
L285.002 12.000
L285.002 198.007
L12.000 198.007
L12.000 12.000
" />
</g>
<g style="fill:none; 
stroke:#000000; stroke-width:0.150; stroke-opacity:1; 
stroke-linecap:round; stroke-linejoin:round;">
<path d="M60.000 12.000
L60.000 10.000
" />
</g>
<g style="fill:none; 
stroke:#000000; stroke-width:0.150; stroke-opacity:1; 
stroke-linecap:round; stroke-linejoin:round;">
<path d="M110.000 12.000
L110.000 10.000
" />
</g>
<g style="fill:none; 
stroke:#000000; stroke-width:0.150; stroke-opacity:1; 
stroke-linecap:round; stroke-linejoin:round;">
<path d="M160.000 12.000
L160.000 10.000
" />
</g>
<g style="fill:none; 
stroke:#000000; stroke-width:0.150; stroke-opacity:1; 
stroke-linecap:round; stroke-linejoin:round;">
<path d="M210.000 12.000
L210.000 10.000
" />
</g>
<g style="fill:none; 
stroke:#000000; stroke-width:0.150; stroke-opacity:1; 
stroke-linecap:round; stroke-linejoin:round;">
<path d="M260.000 12.000
L260.000 10.000
" />
</g>
<g style="fill:none; 
stroke:#000000; stroke-width:0.150; stroke-opacity:1; 
stroke-linecap:round; stroke-linejoin:round;">
<text x="35.000" y="11.650"
textLength="1.428" font-size="1.733" lengthAdjust="spacingAndGlyphs"
text-anchor="start" opacity="0">1</text>
<g class="stroked-text"><desc>1</desc>
<path d="M36.089 11.594
L35.346 11.594
" />
<path d="M35.718 11.594
L35.718 10.294
" />
<path d="M35.718 10.294
L35.594 10.479
" />
<path d="M35.594 10.479
L35.470 10.603
" />
<path d="M35.470 10.603
L35.346 10.665
" />
</g></g>
<g style="fill:none; 
stroke:#000000; stroke-width:0.150; stroke-opacity:1; 
stroke-linecap:round; stroke-linejoin:round;">
<text x="85.000" y="11.650"
textLength="1.428" font-size="1.733" lengthAdjust="spacingAndGlyphs"
text-anchor="start" opacity="0">2</text>
<g class="stroked-text"><desc>2</desc>
<path d="M85.346 10.417
L85.408 10.356
" />
<path d="M85.408 10.356
L85.532 10.294
" />
<path d="M85.532 10.294
L85.842 10.294
" />
<path d="M85.842 10.294
L85.965 10.356
" />
<path d="M85.965 10.356
L86.027 10.417
" />
<path d="M86.027 10.417
L86.089 10.541
" />
<path d="M86.089 10.541
L86.089 10.665
" />
<path d="M86.089 10.665
L86.027 10.851
" />
<path d="M86.027 10.851
L85.284 11.594
" />
<path d="M85.284 11.594
L86.089 11.594
" />
</g></g>
<g style="fill:none; 
stroke:#000000; stroke-width:0.150; stroke-opacity:1; 
stroke-linecap:round; stroke-linejoin:round;">
<text x="135.000" y="11.650"
textLength="1.428" font-size="1.733" lengthAdjust="spacingAndGlyphs"
text-anchor="start" opacity="0">3</text>
<g class="stroked-text"><desc>3</desc>
<path d="M135.284 10.294
L136.089 10.294
" />
<path d="M136.089 10.294
L135.656 10.789
" />
<path d="M135.656 10.789
L135.842 10.789
" />
<path d="M135.842 10.789
L135.965 10.851
" />
<path d="M135.965 10.851
L136.027 10.913
" />
<path d="M136.027 10.913
L136.089 11.036
" />
<path d="M136.089 11.036
L136.089 11.346
" />
<path d="M136.089 11.346
L136.027 11.470
" />
<path d="M136.027 11.470
L135.965 11.532
" />
<path d="M135.965 11.532
L135.842 11.594
" />
<path d="M135.842 11.594
L135.470 11.594
" />
<path d="M135.470 11.594
L135.346 11.532
" />
<path d="M135.346 11.532
L135.284 11.470
" />
</g></g>
<g style="fill:none; 
stroke:#000000; stroke-width:0.150; stroke-opacity:1; 
stroke-linecap:round; stroke-linejoin:round;">
<text x="185.000" y="11.650"
textLength="1.428" font-size="1.733" lengthAdjust="spacingAndGlyphs"
text-anchor="start" opacity="0">4</text>
<g class="stroked-text"><desc>4</desc>
<path d="M185.965 10.727
L185.965 11.594
" />
<path d="M185.656 10.232
L185.346 11.160
" />
<path d="M185.346 11.160
L186.151 11.160
" />
</g></g>
<g style="fill:none; 
stroke:#000000; stroke-width:0.150; stroke-opacity:1; 
stroke-linecap:round; stroke-linejoin:round;">
<text x="235.000" y="11.650"
textLength="1.428" font-size="1.733" lengthAdjust="spacingAndGlyphs"
text-anchor="start" opacity="0">5</text>
<g class="stroked-text"><desc>5</desc>
<path d="M236.027 10.294
L235.408 10.294
" />
<path d="M235.408 10.294
L235.346 10.913
" />
<path d="M235.346 10.913
L235.408 10.851
" />
<path d="M235.408 10.851
L235.532 10.789
" />
<path d="M235.532 10.789
L235.842 10.789
" />
<path d="M235.842 10.789
L235.965 10.851
" />
<path d="M235.965 10.851
L236.027 10.913
" />
<path d="M236.027 10.913
L236.089 11.036
" />
<path d="M236.089 11.036
L236.089 11.346
" />
<path d="M236.089 11.346
L236.027 11.470
" />
<path d="M236.027 11.470
L235.965 11.532
" />
<path d="M235.965 11.532
L235.842 11.594
" />
<path d="M235.842 11.594
L235.532 11.594
" />
<path d="M235.532 11.594
L235.408 11.532
" />
<path d="M235.408 11.532
L235.346 11.470
" />
</g></g>
<g style="fill:none; 
stroke:#000000; stroke-width:0.150; stroke-opacity:1; 
stroke-linecap:round; stroke-linejoin:round;">
<text x="285.000" y="11.650"
textLength="1.428" font-size="1.733" lengthAdjust="spacingAndGlyphs"
text-anchor="start" opacity="0">6</text>
<g class="stroked-text"><desc>6</desc>
<path d="M285.965 10.294
L285.718 10.294
" />
<path d="M285.718 10.294
L285.594 10.356
" />
<path d="M285.594 10.356
L285.532 10.417
" />
<path d="M285.532 10.417
L285.408 10.603
" />
<path d="M285.408 10.603
L285.346 10.851
" />
<path d="M285.346 10.851
L285.346 11.346
" />
<path d="M285.346 11.346
L285.408 11.470
" />
<path d="M285.408 11.470
L285.470 11.532
" />
<path d="M285.470 11.532
L285.594 11.594
" />
<path d="M285.594 11.594
L285.842 11.594
" />
<path d="M285.842 11.594
L285.965 11.532
" />
<path d="M285.965 11.532
L286.027 11.470
" />
<path d="M286.027 11.470
L286.089 11.346
" />
<path d="M286.089 11.346
L286.089 11.036
" />
<path d="M286.089 11.036
L286.027 10.913
" />
<path d="M286.027 10.913
L285.965 10.851
" />
<path d="M285.965 10.851
L285.842 10.789
" />
<path d="M285.842 10.789
L285.594 10.789
" />
<path d="M285.594 10.789
L285.470 10.851
" />
<path d="M285.470 10.851
L285.408 10.913
" />
<path d="M285.408 10.913
L285.346 11.036
" />
</g></g>
<g style="fill:none; 
stroke:#000000; stroke-width:0.150; stroke-opacity:1; 
stroke-linecap:round; stroke-linejoin:round;">
<path d="M60.000 198.007
L60.000 200.007
" />
</g>
<g style="fill:none; 
stroke:#000000; stroke-width:0.150; stroke-opacity:1; 
stroke-linecap:round; stroke-linejoin:round;">
<path d="M110.000 198.007
L110.000 200.007
" />
</g>
<g style="fill:none; 
stroke:#000000; stroke-width:0.150; stroke-opacity:1; 
stroke-linecap:round; stroke-linejoin:round;">
<path d="M160.000 198.007
L160.000 200.007
" />
</g>
<g style="fill:none; 
stroke:#000000; stroke-width:0.150; stroke-opacity:1; 
stroke-linecap:round; stroke-linejoin:round;">
<path d="M210.000 198.007
L210.000 200.007
" />
</g>
<g style="fill:none; 
stroke:#000000; stroke-width:0.150; stroke-opacity:1; 
stroke-linecap:round; stroke-linejoin:round;">
<path d="M260.000 198.007
L260.000 200.007
" />
</g>
<g style="fill:none; 
stroke:#000000; stroke-width:0.150; stroke-opacity:1; 
stroke-linecap:round; stroke-linejoin:round;">
<text x="35.000" y="199.657"
textLength="1.428" font-size="1.733" lengthAdjust="spacingAndGlyphs"
text-anchor="start" opacity="0">1</text>
<g class="stroked-text"><desc>1</desc>
<path d="M36.089 199.601
L35.346 199.601
" />
<path d="M35.718 199.601
L35.718 198.301
" />
<path d="M35.718 198.301
L35.594 198.487
" />
<path d="M35.594 198.487
L35.470 198.610
" />
<path d="M35.470 198.610
L35.346 198.672
" />
</g></g>
<g style="fill:none; 
stroke:#000000; stroke-width:0.150; stroke-opacity:1; 
stroke-linecap:round; stroke-linejoin:round;">
<text x="85.000" y="199.657"
textLength="1.428" font-size="1.733" lengthAdjust="spacingAndGlyphs"
text-anchor="start" opacity="0">2</text>
<g class="stroked-text"><desc>2</desc>
<path d="M85.346 198.425
L85.408 198.363
" />
<path d="M85.408 198.363
L85.532 198.301
" />
<path d="M85.532 198.301
L85.842 198.301
" />
<path d="M85.842 198.301
L85.965 198.363
" />
<path d="M85.965 198.363
L86.027 198.425
" />
<path d="M86.027 198.425
L86.089 198.548
" />
<path d="M86.089 198.548
L86.089 198.672
" />
<path d="M86.089 198.672
L86.027 198.858
" />
<path d="M86.027 198.858
L85.284 199.601
" />
<path d="M85.284 199.601
L86.089 199.601
" />
</g></g>
<g style="fill:none; 
stroke:#000000; stroke-width:0.150; stroke-opacity:1; 
stroke-linecap:round; stroke-linejoin:round;">
<text x="135.000" y="199.657"
textLength="1.428" font-size="1.733" lengthAdjust="spacingAndGlyphs"
text-anchor="start" opacity="0">3</text>
<g class="stroked-text"><desc>3</desc>
<path d="M135.284 198.301
L136.089 198.301
" />
<path d="M136.089 198.301
L135.656 198.796
" />
<path d="M135.656 198.796
L135.842 198.796
" />
<path d="M135.842 198.796
L135.965 198.858
" />
<path d="M135.965 198.858
L136.027 198.920
" />
<path d="M136.027 198.920
L136.089 199.044
" />
<path d="M136.089 199.044
L136.089 199.353
" />
<path d="M136.089 199.353
L136.027 199.477
" />
<path d="M136.027 199.477
L135.965 199.539
" />
<path d="M135.965 199.539
L135.842 199.601
" />
<path d="M135.842 199.601
L135.470 199.601
" />
<path d="M135.470 199.601
L135.346 199.539
" />
<path d="M135.346 199.539
L135.284 199.477
" />
</g></g>
<g style="fill:none; 
stroke:#000000; stroke-width:0.150; stroke-opacity:1; 
stroke-linecap:round; stroke-linejoin:round;">
<text x="185.000" y="199.657"
textLength="1.428" font-size="1.733" lengthAdjust="spacingAndGlyphs"
text-anchor="start" opacity="0">4</text>
<g class="stroked-text"><desc>4</desc>
<path d="M185.965 198.734
L185.965 199.601
" />
<path d="M185.656 198.239
L185.346 199.167
" />
<path d="M185.346 199.167
L186.151 199.167
" />
</g></g>
<g style="fill:none; 
stroke:#000000; stroke-width:0.150; stroke-opacity:1; 
stroke-linecap:round; stroke-linejoin:round;">
<text x="235.000" y="199.657"
textLength="1.428" font-size="1.733" lengthAdjust="spacingAndGlyphs"
text-anchor="start" opacity="0">5</text>
<g class="stroked-text"><desc>5</desc>
<path d="M236.027 198.301
L235.408 198.301
" />
<path d="M235.408 198.301
L235.346 198.920
" />
<path d="M235.346 198.920
L235.408 198.858
" />
<path d="M235.408 198.858
L235.532 198.796
" />
<path d="M235.532 198.796
L235.842 198.796
" />
<path d="M235.842 198.796
L235.965 198.858
" />
<path d="M235.965 198.858
L236.027 198.920
" />
<path d="M236.027 198.920
L236.089 199.044
" />
<path d="M236.089 199.044
L236.089 199.353
" />
<path d="M236.089 199.353
L236.027 199.477
" />
<path d="M236.027 199.477
L235.965 199.539
" />
<path d="M235.965 199.539
L235.842 199.601
" />
<path d="M235.842 199.601
L235.532 199.601
" />
<path d="M235.532 199.601
L235.408 199.539
" />
<path d="M235.408 199.539
L235.346 199.477
" />
</g></g>
<g style="fill:none; 
stroke:#000000; stroke-width:0.150; stroke-opacity:1; 
stroke-linecap:round; stroke-linejoin:round;">
<text x="285.000" y="199.657"
textLength="1.428" font-size="1.733" lengthAdjust="spacingAndGlyphs"
text-anchor="start" opacity="0">6</text>
<g class="stroked-text"><desc>6</desc>
<path d="M285.965 198.301
L285.718 198.301
" />
<path d="M285.718 198.301
L285.594 198.363
" />
<path d="M285.594 198.363
L285.532 198.425
" />
<path d="M285.532 198.425
L285.408 198.610
" />
<path d="M285.408 198.610
L285.346 198.858
" />
<path d="M285.346 198.858
L285.346 199.353
" />
<path d="M285.346 199.353
L285.408 199.477
" />
<path d="M285.408 199.477
L285.470 199.539
" />
<path d="M285.470 199.539
L285.594 199.601
" />
<path d="M285.594 199.601
L285.842 199.601
" />
<path d="M285.842 199.601
L285.965 199.539
" />
<path d="M285.965 199.539
L286.027 199.477
" />
<path d="M286.027 199.477
L286.089 199.353
" />
<path d="M286.089 199.353
L286.089 199.044
" />
<path d="M286.089 199.044
L286.027 198.920
" />
<path d="M286.027 198.920
L285.965 198.858
" />
<path d="M285.965 198.858
L285.842 198.796
" />
<path d="M285.842 198.796
L285.594 198.796
" />
<path d="M285.594 198.796
L285.470 198.858
" />
<path d="M285.470 198.858
L285.408 198.920
" />
<path d="M285.408 198.920
L285.346 199.044
" />
</g></g>
<g style="fill:none; 
stroke:#000000; stroke-width:0.150; stroke-opacity:1; 
stroke-linecap:round; stroke-linejoin:round;">
<path d="M10.000 60.000
L12.000 60.000
" />
</g>
<g style="fill:none; 
stroke:#000000; stroke-width:0.150; stroke-opacity:1; 
stroke-linecap:round; stroke-linejoin:round;">
<path d="M10.000 110.000
L12.000 110.000
" />
</g>
<g style="fill:none; 
stroke:#000000; stroke-width:0.150; stroke-opacity:1; 
stroke-linecap:round; stroke-linejoin:round;">
<path d="M10.000 160.000
L12.000 160.000
" />
</g>
<g style="fill:none; 
stroke:#000000; stroke-width:0.150; stroke-opacity:1; 
stroke-linecap:round; stroke-linejoin:round;">
<text x="11.000" y="35.650"
textLength="1.304" font-size="1.733" lengthAdjust="spacingAndGlyphs"
text-anchor="middle" opacity="0">A</text>
<g class="stroked-text"><desc>A</desc>
<path d="M10.690 35.222
L11.310 35.222
" />
<path d="M10.567 35.594
L11.000 34.294
" />
<path d="M11.000 34.294
L11.433 35.594
" />
</g></g>
<g style="fill:none; 
stroke:#000000; stroke-width:0.150; stroke-opacity:1; 
stroke-linecap:round; stroke-linejoin:round;">
<text x="11.000" y="85.650"
textLength="1.490" font-size="1.733" lengthAdjust="spacingAndGlyphs"
text-anchor="middle" opacity="0">B</text>
<g class="stroked-text"><desc>B</desc>
<path d="M11.093 84.913
L11.279 84.975
" />
<path d="M11.279 84.975
L11.340 85.036
" />
<path d="M11.340 85.036
L11.402 85.160
" />
<path d="M11.402 85.160
L11.402 85.346
" />
<path d="M11.402 85.346
L11.340 85.470
" />
<path d="M11.340 85.470
L11.279 85.532
" />
<path d="M11.279 85.532
L11.155 85.594
" />
<path d="M11.155 85.594
L10.660 85.594
" />
<path d="M10.660 85.594
L10.660 84.294
" />
<path d="M10.660 84.294
L11.093 84.294
" />
<path d="M11.093 84.294
L11.217 84.356
" />
<path d="M11.217 84.356
L11.279 84.417
" />
<path d="M11.279 84.417
L11.340 84.541
" />
<path d="M11.340 84.541
L11.340 84.665
" />
<path d="M11.340 84.665
L11.279 84.789
" />
<path d="M11.279 84.789
L11.217 84.851
" />
<path d="M11.217 84.851
L11.093 84.913
" />
<path d="M11.093 84.913
L10.660 84.913
" />
</g></g>
<g style="fill:none; 
stroke:#000000; stroke-width:0.150; stroke-opacity:1; 
stroke-linecap:round; stroke-linejoin:round;">
<text x="11.000" y="135.650"
textLength="1.490" font-size="1.733" lengthAdjust="spacingAndGlyphs"
text-anchor="middle" opacity="0">C</text>
<g class="stroked-text"><desc>C</desc>
<path d="M11.402 135.470
L11.340 135.532
" />
<path d="M11.340 135.532
L11.155 135.594
" />
<path d="M11.155 135.594
L11.031 135.594
" />
<path d="M11.031 135.594
L10.845 135.532
" />
<path d="M10.845 135.532
L10.721 135.408
" />
<path d="M10.721 135.408
L10.660 135.284
" />
<path d="M10.660 135.284
L10.598 135.036
" />
<path d="M10.598 135.036
L10.598 134.851
" />
<path d="M10.598 134.851
L10.660 134.603
" />
<path d="M10.660 134.603
L10.721 134.479
" />
<path d="M10.721 134.479
L10.845 134.356
" />
<path d="M10.845 134.356
L11.031 134.294
" />
<path d="M11.031 134.294
L11.155 134.294
" />
<path d="M11.155 134.294
L11.340 134.356
" />
<path d="M11.340 134.356
L11.402 134.417
" />
</g></g>
<g style="fill:none; 
stroke:#000000; stroke-width:0.150; stroke-opacity:1; 
stroke-linecap:round; stroke-linejoin:round;">
<text x="11.000" y="185.650"
textLength="1.490" font-size="1.733" lengthAdjust="spacingAndGlyphs"
text-anchor="middle" opacity="0">D</text>
<g class="stroked-text"><desc>D</desc>
<path d="M10.660 185.594
L10.660 184.294
" />
<path d="M10.660 184.294
L10.969 184.294
" />
<path d="M10.969 184.294
L11.155 184.356
" />
<path d="M11.155 184.356
L11.279 184.479
" />
<path d="M11.279 184.479
L11.340 184.603
" />
<path d="M11.340 184.603
L11.402 184.851
" />
<path d="M11.402 184.851
L11.402 185.036
" />
<path d="M11.402 185.036
L11.340 185.284
" />
<path d="M11.340 185.284
L11.279 185.408
" />
<path d="M11.279 185.408
L11.155 185.532
" />
<path d="M11.155 185.532
L10.969 185.594
" />
<path d="M10.969 185.594
L10.660 185.594
" />
</g></g>
<g style="fill:none; 
stroke:#000000; stroke-width:0.150; stroke-opacity:1; 
stroke-linecap:round; stroke-linejoin:round;">
<path d="M287.002 60.000
L285.002 60.000
" />
</g>
<g style="fill:none; 
stroke:#000000; stroke-width:0.150; stroke-opacity:1; 
stroke-linecap:round; stroke-linejoin:round;">
<path d="M287.002 110.000
L285.002 110.000
" />
</g>
<g style="fill:none; 
stroke:#000000; stroke-width:0.150; stroke-opacity:1; 
stroke-linecap:round; stroke-linejoin:round;">
<path d="M287.002 160.000
L285.002 160.000
" />
</g>
<g style="fill:none; 
stroke:#000000; stroke-width:0.150; stroke-opacity:1; 
stroke-linecap:round; stroke-linejoin:round;">
<text x="286.002" y="35.650"
textLength="1.304" font-size="1.733" lengthAdjust="spacingAndGlyphs"
text-anchor="middle" opacity="0">A</text>
<g class="stroked-text"><desc>A</desc>
<path d="M285.693 35.222
L286.312 35.222
" />
<path d="M285.569 35.594
L286.002 34.294
" />
<path d="M286.002 34.294
L286.436 35.594
" />
</g></g>
<g style="fill:none; 
stroke:#000000; stroke-width:0.150; stroke-opacity:1; 
stroke-linecap:round; stroke-linejoin:round;">
<text x="286.002" y="85.650"
textLength="1.490" font-size="1.733" lengthAdjust="spacingAndGlyphs"
text-anchor="middle" opacity="0">B</text>
<g class="stroked-text"><desc>B</desc>
<path d="M286.095 84.913
L286.281 84.975
" />
<path d="M286.281 84.975
L286.343 85.036
" />
<path d="M286.343 85.036
L286.405 85.160
" />
<path d="M286.405 85.160
L286.405 85.346
" />
<path d="M286.405 85.346
L286.343 85.470
" />
<path d="M286.343 85.470
L286.281 85.532
" />
<path d="M286.281 85.532
L286.157 85.594
" />
<path d="M286.157 85.594
L285.662 85.594
" />
<path d="M285.662 85.594
L285.662 84.294
" />
<path d="M285.662 84.294
L286.095 84.294
" />
<path d="M286.095 84.294
L286.219 84.356
" />
<path d="M286.219 84.356
L286.281 84.417
" />
<path d="M286.281 84.417
L286.343 84.541
" />
<path d="M286.343 84.541
L286.343 84.665
" />
<path d="M286.343 84.665
L286.281 84.789
" />
<path d="M286.281 84.789
L286.219 84.851
" />
<path d="M286.219 84.851
L286.095 84.913
" />
<path d="M286.095 84.913
L285.662 84.913
" />
</g></g>
<g style="fill:none; 
stroke:#000000; stroke-width:0.150; stroke-opacity:1; 
stroke-linecap:round; stroke-linejoin:round;">
<text x="286.002" y="135.650"
textLength="1.490" font-size="1.733" lengthAdjust="spacingAndGlyphs"
text-anchor="middle" opacity="0">C</text>
<g class="stroked-text"><desc>C</desc>
<path d="M286.405 135.470
L286.343 135.532
" />
<path d="M286.343 135.532
L286.157 135.594
" />
<path d="M286.157 135.594
L286.033 135.594
" />
<path d="M286.033 135.594
L285.847 135.532
" />
<path d="M285.847 135.532
L285.724 135.408
" />
<path d="M285.724 135.408
L285.662 135.284
" />
<path d="M285.662 135.284
L285.600 135.036
" />
<path d="M285.600 135.036
L285.600 134.851
" />
<path d="M285.600 134.851
L285.662 134.603
" />
<path d="M285.662 134.603
L285.724 134.479
" />
<path d="M285.724 134.479
L285.847 134.356
" />
<path d="M285.847 134.356
L286.033 134.294
" />
<path d="M286.033 134.294
L286.157 134.294
" />
<path d="M286.157 134.294
L286.343 134.356
" />
<path d="M286.343 134.356
L286.405 134.417
" />
</g></g>
<g style="fill:none; 
stroke:#000000; stroke-width:0.150; stroke-opacity:1; 
stroke-linecap:round; stroke-linejoin:round;">
<text x="286.002" y="185.650"
textLength="1.490" font-size="1.733" lengthAdjust="spacingAndGlyphs"
text-anchor="middle" opacity="0">D</text>
<g class="stroked-text"><desc>D</desc>
<path d="M285.662 185.594
L285.662 184.294
" />
<path d="M285.662 184.294
L285.971 184.294
" />
<path d="M285.971 184.294
L286.157 184.356
" />
<path d="M286.157 184.356
L286.281 184.479
" />
<path d="M286.281 184.479
L286.343 184.603
" />
<path d="M286.343 184.603
L286.405 184.851
" />
<path d="M286.405 184.851
L286.405 185.036
" />
<path d="M286.405 185.036
L286.343 185.284
" />
<path d="M286.343 185.284
L286.281 185.408
" />
<path d="M286.281 185.408
L286.157 185.532
" />
<path d="M286.157 185.532
L285.971 185.594
" />
<path d="M285.971 185.594
L285.662 185.594
" />
</g></g>
<g style="fill:none; 
stroke:#000000; stroke-width:0.150; stroke-opacity:1; 
stroke-linecap:round; stroke-linejoin:round;">
<text x="200.002" y="193.857"
textLength="22.150" font-size="2.000" lengthAdjust="spacingAndGlyphs"
text-anchor="start" opacity="0">Date: 2024-11-24</text>
<g class="stroked-text"><desc>Date: 2024-11-24</desc>
<path d="M200.458 193.793
L200.458 192.293
" />
<path d="M200.458 192.293
L200.815 192.293
" />
<path d="M200.815 192.293
L201.029 192.365
" />
<path d="M201.029 192.365
L201.172 192.508
" />
<path d="M201.172 192.508
L201.244 192.650
" />
<path d="M201.244 192.650
L201.315 192.936
" />
<path d="M201.315 192.936
L201.315 193.150
" />
<path d="M201.315 193.150
L201.244 193.436
" />
<path d="M201.244 193.436
L201.172 193.579
" />
<path d="M201.172 193.579
L201.029 193.722
" />
<path d="M201.029 193.722
L200.815 193.793
" />
<path d="M200.815 193.793
L200.458 193.793
" />
<path d="M202.601 193.793
L202.601 193.008
" />
<path d="M202.601 193.008
L202.529 192.865
" />
<path d="M202.529 192.865
L202.387 192.793
" />
<path d="M202.387 192.793
L202.101 192.793
" />
<path d="M202.101 192.793
L201.958 192.865
" />
<path d="M202.601 193.722
L202.458 193.793
" />
<path d="M202.458 193.793
L202.101 193.793
" />
<path d="M202.101 193.793
L201.958 193.722
" />
<path d="M201.958 193.722
L201.887 193.579
" />
<path d="M201.887 193.579
L201.887 193.436
" />
<path d="M201.887 193.436
L201.958 193.293
" />
<path d="M201.958 193.293
L202.101 193.222
" />
<path d="M202.101 193.222
L202.458 193.222
" />
<path d="M202.458 193.222
L202.601 193.150
" />
<path d="M203.101 192.793
L203.672 192.793
" />
<path d="M203.315 192.293
L203.315 193.579
" />
<path d="M203.315 193.579
L203.387 193.722
" />
<path d="M203.387 193.722
L203.529 193.793
" />
<path d="M203.529 193.793
L203.672 193.793
" />
<path d="M204.744 193.722
L204.601 193.793
" />
<path d="M204.601 193.793
L204.315 193.793
" />
<path d="M204.315 193.793
L204.172 193.722
" />
<path d="M204.172 193.722
L204.101 193.579
" />
<path d="M204.101 193.579
L204.101 193.008
" />
<path d="M204.101 193.008
L204.172 192.865
" />
<path d="M204.172 192.865
L204.315 192.793
" />
<path d="M204.315 192.793
L204.601 192.793
" />
<path d="M204.601 192.793
L204.744 192.865
" />
<path d="M204.744 192.865
L204.815 193.008
" />
<path d="M204.815 193.008
L204.815 193.150
" />
<path d="M204.815 193.150
L204.101 193.293
" />
<path d="M205.458 193.650
L205.529 193.722
" />
<path d="M205.529 193.722
L205.458 193.793
" />
<path d="M205.458 193.793
L205.387 193.722
" />
<path d="M205.387 193.722
L205.458 193.650
" />
<path d="M205.458 193.650
L205.458 193.793
" />
<path d="M205.458 192.865
L205.529 192.936
" />
<path d="M205.529 192.936
L205.458 193.008
" />
<path d="M205.458 193.008
L205.387 192.936
" />
<path d="M205.387 192.936
L205.458 192.865
" />
<path d="M205.458 192.865
L205.458 193.008
" />
<path d="M207.244 192.436
L207.315 192.365
" />
<path d="M207.315 192.365
L207.458 192.293
" />
<path d="M207.458 192.293
L207.815 192.293
" />
<path d="M207.815 192.293
L207.958 192.365
" />
<path d="M207.958 192.365
L208.029 192.436
" />
<path d="M208.029 192.436
L208.101 192.579
" />
<path d="M208.101 192.579
L208.101 192.722
" />
<path d="M208.101 192.722
L208.029 192.936
" />
<path d="M208.029 192.936
L207.172 193.793
" />
<path d="M207.172 193.793
L208.101 193.793
" />
<path d="M209.029 192.293
L209.172 192.293
" />
<path d="M209.172 192.293
L209.315 192.365
" />
<path d="M209.315 192.365
L209.387 192.436
" />
<path d="M209.387 192.436
L209.458 192.579
" />
<path d="M209.458 192.579
L209.529 192.865
" />
<path d="M209.529 192.865
L209.529 193.222
" />
<path d="M209.529 193.222
L209.458 193.508
" />
<path d="M209.458 193.508
L209.387 193.650
" />
<path d="M209.387 193.650
L209.315 193.722
" />
<path d="M209.315 193.722
L209.172 193.793
" />
<path d="M209.172 193.793
L209.029 193.793
" />
<path d="M209.029 193.793
L208.887 193.722
" />
<path d="M208.887 193.722
L208.815 193.650
" />
<path d="M208.815 193.650
L208.744 193.508
" />
<path d="M208.744 193.508
L208.672 193.222
" />
<path d="M208.672 193.222
L208.672 192.865
" />
<path d="M208.672 192.865
L208.744 192.579
" />
<path d="M208.744 192.579
L208.815 192.436
" />
<path d="M208.815 192.436
L208.887 192.365
" />
<path d="M208.887 192.365
L209.029 192.293
" />
<path d="M210.101 192.436
L210.172 192.365
" />
<path d="M210.172 192.365
L210.315 192.293
" />
<path d="M210.315 192.293
L210.672 192.293
" />
<path d="M210.672 192.293
L210.815 192.365
" />
<path d="M210.815 192.365
L210.887 192.436
" />
<path d="M210.887 192.436
L210.958 192.579
" />
<path d="M210.958 192.579
L210.958 192.722
" />
<path d="M210.958 192.722
L210.887 192.936
" />
<path d="M210.887 192.936
L210.029 193.793
" />
<path d="M210.029 193.793
L210.958 193.793
" />
<path d="M212.244 192.793
L212.244 193.793
" />
<path d="M211.887 192.222
L211.529 193.293
" />
<path d="M211.529 193.293
L212.458 193.293
" />
<path d="M213.029 193.222
L214.172 193.222
" />
<path d="M215.672 193.793
L214.815 193.793
" />
<path d="M215.244 193.793
L215.244 192.293
" />
<path d="M215.244 192.293
L215.101 192.508
" />
<path d="M215.101 192.508
L214.958 192.650
" />
<path d="M214.958 192.650
L214.815 192.722
" />
<path d="M217.101 193.793
L216.244 193.793
" />
<path d="M216.672 193.793
L216.672 192.293
" />
<path d="M216.672 192.293
L216.529 192.508
" />
<path d="M216.529 192.508
L216.387 192.650
" />
<path d="M216.387 192.650
L216.244 192.722
" />
<path d="M217.744 193.222
L218.887 193.222
" />
<path d="M219.529 192.436
L219.601 192.365
" />
<path d="M219.601 192.365
L219.744 192.293
" />
<path d="M219.744 192.293
L220.101 192.293
" />
<path d="M220.101 192.293
L220.244 192.365
" />
<path d="M220.244 192.365
L220.315 192.436
" />
<path d="M220.315 192.436
L220.387 192.579
" />
<path d="M220.387 192.579
L220.387 192.722
" />
<path d="M220.387 192.722
L220.315 192.936
" />
<path d="M220.315 192.936
L219.458 193.793
" />
<path d="M219.458 193.793
L220.387 193.793
" />
<path d="M221.672 192.793
L221.672 193.793
" />
<path d="M221.315 192.222
L220.958 193.293
" />
<path d="M220.958 193.293
L221.887 193.293
" />
</g></g>
<g style="fill:none; 
stroke:#000000; stroke-width:0.150; stroke-opacity:1; 
stroke-linecap:round; stroke-linejoin:round;">
<path d="M177.002 194.507
L285.002 194.507
" />
</g>
<g style="fill:none; 
stroke:#000000; stroke-width:0.150; stroke-opacity:1; 
stroke-linecap:round; stroke-linejoin:round;">
<text x="178.002" y="196.657"
textLength="20.650" font-size="2.000" lengthAdjust="spacingAndGlyphs"
text-anchor="start" opacity="0">${KICAD_VERSION}</text>
<g class="stroked-text"><desc>${KICAD_VERSION}</desc>
<path d="M178.387 196.522
L178.601 196.593
" />
<path d="M178.601 196.593
L178.958 196.593
" />
<path d="M178.958 196.593
L179.101 196.522
" />
<path d="M179.101 196.522
L179.172 196.450
" />
<path d="M179.172 196.450
L179.244 196.308
" />
<path d="M179.244 196.308
L179.244 196.165
" />
<path d="M179.244 196.165
L179.172 196.022
" />
<path d="M179.172 196.022
L179.101 195.950
" />
<path d="M179.101 195.950
L178.958 195.879
" />
<path d="M178.958 195.879
L178.672 195.808
" />
<path d="M178.672 195.808
L178.529 195.736
" />
<path d="M178.529 195.736
L178.458 195.665
" />
<path d="M178.458 195.665
L178.387 195.522
" />
<path d="M178.387 195.522
L178.387 195.379
" />
<path d="M178.387 195.379
L178.458 195.236
" />
<path d="M178.458 195.236
L178.529 195.165
" />
<path d="M178.529 195.165
L178.672 195.093
" />
<path d="M178.672 195.093
L179.029 195.093
" />
<path d="M179.029 195.093
L179.244 195.165
" />
<path d="M178.815 194.879
L178.815 196.808
" />
<path d="M180.315 197.165
L180.244 197.165
" />
<path d="M180.244 197.165
L180.101 197.093
" />
<path d="M180.101 197.093
L180.029 196.950
" />
<path d="M180.029 196.950
L180.029 196.236
" />
<path d="M180.029 196.236
L179.958 196.093
" />
<path d="M179.958 196.093
L179.815 196.022
" />
<path d="M179.815 196.022
L179.958 195.950
" />
<path d="M179.958 195.950
L180.029 195.808
" />
<path d="M180.029 195.808
L180.029 195.093
" />
<path d="M180.029 195.093
L180.101 194.950
" />
<path d="M180.101 194.950
L180.244 194.879
" />
<path d="M180.244 194.879
L180.315 194.879
" />
<path d="M180.887 196.593
L180.887 195.093
" />
<path d="M181.744 196.593
L181.101 195.736
" />
<path d="M181.744 195.093
L180.887 195.950
" />
<path d="M182.387 196.593
L182.387 195.093
" />
<path d="M183.958 196.450
L183.887 196.522
" />
<path d="M183.887 196.522
L183.672 196.593
" />
<path d="M183.672 196.593
L183.529 196.593
" />
<path d="M183.529 196.593
L183.315 196.522
" />
<path d="M183.315 196.522
L183.172 196.379
" />
<path d="M183.172 196.379
L183.101 196.236
" />
<path d="M183.101 196.236
L183.029 195.950
" />
<path d="M183.029 195.950
L183.029 195.736
" />
<path d="M183.029 195.736
L183.101 195.450
" />
<path d="M183.101 195.450
L183.172 195.308
" />
<path d="M183.172 195.308
L183.315 195.165
" />
<path d="M183.315 195.165
L183.529 195.093
" />
<path d="M183.529 195.093
L183.672 195.093
" />
<path d="M183.672 195.093
L183.887 195.165
" />
<path d="M183.887 195.165
L183.958 195.236
" />
<path d="M184.529 196.165
L185.244 196.165
" />
<path d="M184.387 196.593
L184.887 195.093
" />
<path d="M184.887 195.093
L185.387 196.593
" />
<path d="M185.887 196.593
L185.887 195.093
" />
<path d="M185.887 195.093
L186.244 195.093
" />
<path d="M186.244 195.093
L186.458 195.165
" />
<path d="M186.458 195.165
L186.601 195.308
" />
<path d="M186.601 195.308
L186.672 195.450
" />
<path d="M186.672 195.450
L186.744 195.736
" />
<path d="M186.744 195.736
L186.744 195.950
" />
<path d="M186.744 195.950
L186.672 196.236
" />
<path d="M186.672 196.236
L186.601 196.379
" />
<path d="M186.601 196.379
L186.458 196.522
" />
<path d="M186.458 196.522
L186.244 196.593
" />
<path d="M186.244 196.593
L185.887 196.593
" />
<path d="M187.029 196.736
L188.172 196.736
" />
<path d="M188.315 195.093
L188.815 196.593
" />
<path d="M188.815 196.593
L189.315 195.093
" />
<path d="M189.815 195.808
L190.315 195.808
" />
<path d="M190.529 196.593
L189.815 196.593
" />
<path d="M189.815 196.593
L189.815 195.093
" />
<path d="M189.815 195.093
L190.529 195.093
" />
<path d="M192.029 196.593
L191.529 195.879
" />
<path d="M191.172 196.593
L191.172 195.093
" />
<path d="M191.172 195.093
L191.744 195.093
" />
<path d="M191.744 195.093
L191.887 195.165
" />
<path d="M191.887 195.165
L191.958 195.236
" />
<path d="M191.958 195.236
L192.029 195.379
" />
<path d="M192.029 195.379
L192.029 195.593
" />
<path d="M192.029 195.593
L191.958 195.736
" />
<path d="M191.958 195.736
L191.887 195.808
" />
<path d="M191.887 195.808
L191.744 195.879
" />
<path d="M191.744 195.879
L191.172 195.879
" />
<path d="M192.601 196.522
L192.815 196.593
" />
<path d="M192.815 196.593
L193.172 196.593
" />
<path d="M193.172 196.593
L193.315 196.522
" />
<path d="M193.315 196.522
L193.387 196.450
" />
<path d="M193.387 196.450
L193.458 196.308
" />
<path d="M193.458 196.308
L193.458 196.165
" />
<path d="M193.458 196.165
L193.387 196.022
" />
<path d="M193.387 196.022
L193.315 195.950
" />
<path d="M193.315 195.950
L193.172 195.879
" />
<path d="M193.172 195.879
L192.887 195.808
" />
<path d="M192.887 195.808
L192.744 195.736
" />
<path d="M192.744 195.736
L192.672 195.665
" />
<path d="M192.672 195.665
L192.601 195.522
" />
<path d="M192.601 195.522
L192.601 195.379
" />
<path d="M192.601 195.379
L192.672 195.236
" />
<path d="M192.672 195.236
L192.744 195.165
" />
<path d="M192.744 195.165
L192.887 195.093
" />
<path d="M192.887 195.093
L193.244 195.093
" />
<path d="M193.244 195.093
L193.458 195.165
" />
<path d="M194.101 196.593
L194.101 195.093
" />
<path d="M195.101 195.093
L195.387 195.093
" />
<path d="M195.387 195.093
L195.529 195.165
" />
<path d="M195.529 195.165
L195.672 195.308
" />
<path d="M195.672 195.308
L195.744 195.593
" />
<path d="M195.744 195.593
L195.744 196.093
" />
<path d="M195.744 196.093
L195.672 196.379
" />
<path d="M195.672 196.379
L195.529 196.522
" />
<path d="M195.529 196.522
L195.387 196.593
" />
<path d="M195.387 196.593
L195.101 196.593
" />
<path d="M195.101 196.593
L194.958 196.522
" />
<path d="M194.958 196.522
L194.815 196.379
" />
<path d="M194.815 196.379
L194.744 196.093
" />
<path d="M194.744 196.093
L194.744 195.593
" />
<path d="M194.744 195.593
L194.815 195.308
" />
<path d="M194.815 195.308
L194.958 195.165
" />
<path d="M194.958 195.165
L195.101 195.093
" />
<path d="M196.387 196.593
L196.387 195.093
" />
<path d="M196.387 195.093
L197.244 196.593
" />
<path d="M197.244 196.593
L197.244 195.093
" />
<path d="M197.815 197.165
L197.887 197.165
" />
<path d="M197.887 197.165
L198.029 197.093
" />
<path d="M198.029 197.093
L198.101 196.950
" />
<path d="M198.101 196.950
L198.101 196.236
" />
<path d="M198.101 196.236
L198.172 196.093
" />
<path d="M198.172 196.093
L198.315 196.022
" />
<path d="M198.315 196.022
L198.172 195.950
" />
<path d="M198.172 195.950
L198.101 195.808
" />
<path d="M198.101 195.808
L198.101 195.093
" />
<path d="M198.101 195.093
L198.029 194.950
" />
<path d="M198.029 194.950
L197.887 194.879
" />
<path d="M197.887 194.879
L197.815 194.879
" />
</g></g>
<g style="fill:none; 
stroke:#000000; stroke-width:0.150; stroke-opacity:1; 
stroke-linecap:round; stroke-linejoin:round;">
<path d="M177.002 191.507
L285.002 191.507
" />
</g>
<g style="fill:none; 
stroke:#000000; stroke-width:0.300; stroke-opacity:1; 
stroke-linecap:round; stroke-linejoin:round;">
<text x="263.002" y="193.857"
textLength="9.957" font-size="2.000" lengthAdjust="spacingAndGlyphs"
text-anchor="start" opacity="0">Rev: 1.0</text>
<g class="stroked-text"><desc>Rev: 1.0</desc>
<path d="M264.414 193.786
L263.914 193.071
" />
<path d="M263.557 193.786
L263.557 192.286
" />
<path d="M263.557 192.286
L264.128 192.286
" />
<path d="M264.128 192.286
L264.271 192.357
" />
<path d="M264.271 192.357
L264.342 192.428
" />
<path d="M264.342 192.428
L264.414 192.571
" />
<path d="M264.414 192.571
L264.414 192.786
" />
<path d="M264.414 192.786
L264.342 192.928
" />
<path d="M264.342 192.928
L264.271 193.000
" />
<path d="M264.271 193.000
L264.128 193.071
" />
<path d="M264.128 193.071
L263.557 193.071
" />
<path d="M265.628 193.714
L265.485 193.786
" />
<path d="M265.485 193.786
L265.200 193.786
" />
<path d="M265.200 193.786
L265.057 193.714
" />
<path d="M265.057 193.714
L264.985 193.571
" />
<path d="M264.985 193.571
L264.985 193.000
" />
<path d="M264.985 193.000
L265.057 192.857
" />
<path d="M265.057 192.857
L265.200 192.786
" />
<path d="M265.200 192.786
L265.485 192.786
" />
<path d="M265.485 192.786
L265.628 192.857
" />
<path d="M265.628 192.857
L265.700 193.000
" />
<path d="M265.700 193.000
L265.700 193.143
" />
<path d="M265.700 193.143
L264.985 193.286
" />
<path d="M266.200 192.786
L266.557 193.786
" />
<path d="M266.557 193.786
L266.914 192.786
" />
<path d="M267.485 193.643
L267.557 193.714
" />
<path d="M267.557 193.714
L267.485 193.786
" />
<path d="M267.485 193.786
L267.414 193.714
" />
<path d="M267.414 193.714
L267.485 193.643
" />
<path d="M267.485 193.643
L267.485 193.786
" />
<path d="M267.485 192.857
L267.557 192.928
" />
<path d="M267.557 192.928
L267.485 193.000
" />
<path d="M267.485 193.000
L267.414 192.928
" />
<path d="M267.414 192.928
L267.485 192.857
" />
<path d="M267.485 192.857
L267.485 193.000
" />
<path d="M270.128 193.786
L269.271 193.786
" />
<path d="M269.700 193.786
L269.700 192.286
" />
<path d="M269.700 192.286
L269.557 192.500
" />
<path d="M269.557 192.500
L269.414 192.643
" />
<path d="M269.414 192.643
L269.271 192.714
" />
<path d="M270.771 193.643
L270.842 193.714
" />
<path d="M270.842 193.714
L270.771 193.786
" />
<path d="M270.771 193.786
L270.700 193.714
" />
<path d="M270.700 193.714
L270.771 193.643
" />
<path d="M270.771 193.643
L270.771 193.786
" />
<path d="M271.771 192.286
L271.914 192.286
" />
<path d="M271.914 192.286
L272.057 192.357
" />
<path d="M272.057 192.357
L272.128 192.428
" />
<path d="M272.128 192.428
L272.200 192.571
" />
<path d="M272.200 192.571
L272.271 192.857
" />
<path d="M272.271 192.857
L272.271 193.214
" />
<path d="M272.271 193.214
L272.200 193.500
" />
<path d="M272.200 193.500
L272.128 193.643
" />
<path d="M272.128 193.643
L272.057 193.714
" />
<path d="M272.057 193.714
L271.914 193.786
" />
<path d="M271.914 193.786
L271.771 193.786
" />
<path d="M271.771 193.786
L271.628 193.714
" />
<path d="M271.628 193.714
L271.557 193.643
" />
<path d="M271.557 193.643
L271.485 193.500
" />
<path d="M271.485 193.500
L271.414 193.214
" />
<path d="M271.414 193.214
L271.414 192.857
" />
<path d="M271.414 192.857
L271.485 192.571
" />
<path d="M271.485 192.571
L271.557 192.428
" />
<path d="M271.557 192.428
L271.628 192.357
" />
<path d="M271.628 192.357
L271.771 192.286
" />
</g></g>
<g style="fill:none; 
stroke:#000000; stroke-width:0.150; stroke-opacity:1; 
stroke-linecap:round; stroke-linejoin:round;">
<text x="178.002" y="193.857"
textLength="9.364" font-size="2.000" lengthAdjust="spacingAndGlyphs"
text-anchor="start" opacity="0">Size: A4</text>
<g class="stroked-text"><desc>Size: A4</desc>
<path d="M178.387 193.722
L178.601 193.793
" />
<path d="M178.601 193.793
L178.958 193.793
" />
<path d="M178.958 193.793
L179.101 193.722
" />
<path d="M179.101 193.722
L179.172 193.650
" />
<path d="M179.172 193.650
L179.244 193.508
" />
<path d="M179.244 193.508
L179.244 193.365
" />
<path d="M179.244 193.365
L179.172 193.222
" />
<path d="M179.172 193.222
L179.101 193.150
" />
<path d="M179.101 193.150
L178.958 193.079
" />
<path d="M178.958 193.079
L178.672 193.008
" />
<path d="M178.672 193.008
L178.529 192.936
" />
<path d="M178.529 192.936
L178.458 192.865
" />
<path d="M178.458 192.865
L178.387 192.722
" />
<path d="M178.387 192.722
L178.387 192.579
" />
<path d="M178.387 192.579
L178.458 192.436
" />
<path d="M178.458 192.436
L178.529 192.365
" />
<path d="M178.529 192.365
L178.672 192.293
" />
<path d="M178.672 192.293
L179.029 192.293
" />
<path d="M179.029 192.293
L179.244 192.365
" />
<path d="M179.887 193.793
L179.887 192.793
" />
<path d="M179.887 192.293
L179.815 192.365
" />
<path d="M179.815 192.365
L179.887 192.436
" />
<path d="M179.887 192.436
L179.958 192.365
" />
<path d="M179.958 192.365
L179.887 192.293
" />
<path d="M179.887 192.293
L179.887 192.436
" />
<path d="M180.458 192.793
L181.244 192.793
" />
<path d="M181.244 192.793
L180.458 193.793
" />
<path d="M180.458 193.793
L181.244 193.793
" />
<path d="M182.387 193.722
L182.244 193.793
" />
<path d="M182.244 193.793
L181.958 193.793
" />
<path d="M181.958 193.793
L181.815 193.722
" />
<path d="M181.815 193.722
L181.744 193.579
" />
<path d="M181.744 193.579
L181.744 193.008
" />
<path d="M181.744 193.008
L181.815 192.865
" />
<path d="M181.815 192.865
L181.958 192.793
" />
<path d="M181.958 192.793
L182.244 192.793
" />
<path d="M182.244 192.793
L182.387 192.865
" />
<path d="M182.387 192.865
L182.458 193.008
" />
<path d="M182.458 193.008
L182.458 193.150
" />
<path d="M182.458 193.150
L181.744 193.293
" />
<path d="M183.101 193.650
L183.172 193.722
" />
<path d="M183.172 193.722
L183.101 193.793
" />
<path d="M183.101 193.793
L183.029 193.722
" />
<path d="M183.029 193.722
L183.101 193.650
" />
<path d="M183.101 193.650
L183.101 193.793
" />
<path d="M183.101 192.865
L183.172 192.936
" />
<path d="M183.172 192.936
L183.101 193.008
" />
<path d="M183.101 193.008
L183.029 192.936
" />
<path d="M183.029 192.936
L183.101 192.865
" />
<path d="M183.101 192.865
L183.101 193.008
" />
<path d="M184.887 193.365
L185.601 193.365
" />
<path d="M184.744 193.793
L185.244 192.293
" />
<path d="M185.244 192.293
L185.744 193.793
" />
<path d="M186.887 192.793
L186.887 193.793
" />
<path d="M186.529 192.222
L186.172 193.293
" />
<path d="M186.172 193.293
L187.101 193.293
" />
</g></g>
<g style="fill:none; 
stroke:#000000; stroke-width:0.150; stroke-opacity:1; 
stroke-linecap:round; stroke-linejoin:round;">
<text x="263.002" y="196.657"
textLength="8.507" font-size="2.000" lengthAdjust="spacingAndGlyphs"
text-anchor="start" opacity="0">Id: 1/1</text>
<g class="stroked-text"><desc>Id: 1/1</desc>
<path d="M263.458 196.593
L263.458 195.093
" />
<path d="M264.815 196.593
L264.815 195.093
" />
<path d="M264.815 196.522
L264.672 196.593
" />
<path d="M264.672 196.593
L264.387 196.593
" />
<path d="M264.387 196.593
L264.244 196.522
" />
<path d="M264.244 196.522
L264.172 196.450
" />
<path d="M264.172 196.450
L264.101 196.308
" />
<path d="M264.101 196.308
L264.101 195.879
" />
<path d="M264.101 195.879
L264.172 195.736
" />
<path d="M264.172 195.736
L264.244 195.665
" />
<path d="M264.244 195.665
L264.387 195.593
" />
<path d="M264.387 195.593
L264.672 195.593
" />
<path d="M264.672 195.593
L264.815 195.665
" />
<path d="M265.529 196.450
L265.601 196.522
" />
<path d="M265.601 196.522
L265.529 196.593
" />
<path d="M265.529 196.593
L265.458 196.522
" />
<path d="M265.458 196.522
L265.529 196.450
" />
<path d="M265.529 196.450
L265.529 196.593
" />
<path d="M265.529 195.665
L265.601 195.736
" />
<path d="M265.601 195.736
L265.529 195.808
" />
<path d="M265.529 195.808
L265.458 195.736
" />
<path d="M265.458 195.736
L265.529 195.665
" />
<path d="M265.529 195.665
L265.529 195.808
" />
<path d="M268.172 196.593
L267.315 196.593
" />
<path d="M267.744 196.593
L267.744 195.093
" />
<path d="M267.744 195.093
L267.601 195.308
" />
<path d="M267.601 195.308
L267.458 195.450
" />
<path d="M267.458 195.450
L267.315 195.522
" />
<path d="M269.887 195.022
L268.601 196.950
" />
<path d="M271.172 196.593
L270.315 196.593
" />
<path d="M270.744 196.593
L270.744 195.093
" />
<path d="M270.744 195.093
L270.601 195.308
" />
<path d="M270.601 195.308
L270.458 195.450
" />
<path d="M270.458 195.450
L270.315 195.522
" />
</g></g>
<g style="fill:none; 
stroke:#000000; stroke-width:0.150; stroke-opacity:1; 
stroke-linecap:round; stroke-linejoin:round;">
<path d="M177.002 187.507
L285.002 187.507
" />
</g>
<g style="fill:none; 
stroke:#000000; stroke-width:0.400; stroke-opacity:1; 
stroke-linecap:round; stroke-linejoin:round;">
<text x="178.002" y="190.307"
textLength="49.276" font-size="2.667" lengthAdjust="spacingAndGlyphs"
text-anchor="start" opacity="0">Title: Gaggimate Controller PCB</text>
<g class="stroked-text"><desc>Title: Gaggimate Controller PCB</desc>
<path d="M178.694 188.212
L179.837 188.212
" />
<path d="M179.015 190.212
L179.265 188.212
" />
<path d="M180.253 190.212
L180.420 188.878
" />
<path d="M180.503 188.212
L180.396 188.307
" />
<path d="M180.396 188.307
L180.480 188.402
" />
<path d="M180.480 188.402
L180.587 188.307
" />
<path d="M180.587 188.307
L180.503 188.212
" />
<path d="M180.503 188.212
L180.480 188.402
" />
<path d="M181.087 188.878
L181.849 188.878
" />
<path d="M181.456 188.212
L181.242 189.926
" />
<path d="M181.242 189.926
L181.313 190.116
" />
<path d="M181.313 190.116
L181.492 190.212
" />
<path d="M181.492 190.212
L181.682 190.212
" />
<path d="M182.634 190.212
L182.456 190.116
" />
<path d="M182.456 190.116
L182.384 189.926
" />
<path d="M182.384 189.926
L182.599 188.212
" />
<path d="M184.170 190.116
L183.968 190.212
" />
<path d="M183.968 190.212
L183.587 190.212
" />
<path d="M183.587 190.212
L183.408 190.116
" />
<path d="M183.408 190.116
L183.337 189.926
" />
<path d="M183.337 189.926
L183.432 189.164
" />
<path d="M183.432 189.164
L183.551 188.974
" />
<path d="M183.551 188.974
L183.753 188.878
" />
<path d="M183.753 188.878
L184.134 188.878
" />
<path d="M184.134 188.878
L184.313 188.974
" />
<path d="M184.313 188.974
L184.384 189.164
" />
<path d="M184.384 189.164
L184.361 189.354
" />
<path d="M184.361 189.354
L183.384 189.545
" />
<path d="M185.134 190.021
L185.218 190.116
" />
<path d="M185.218 190.116
L185.111 190.212
" />
<path d="M185.111 190.212
L185.027 190.116
" />
<path d="M185.027 190.116
L185.134 190.021
" />
<path d="M185.134 190.021
L185.111 190.212
" />
<path d="M185.265 188.974
L185.349 189.069
" />
<path d="M185.349 189.069
L185.242 189.164
" />
<path d="M185.242 189.164
L185.158 189.069
" />
<path d="M185.158 189.069
L185.265 188.974
" />
<path d="M185.265 188.974
L185.242 189.164
" />
<path d="M188.873 188.307
L188.694 188.212
" />
<path d="M188.694 188.212
L188.408 188.212
" />
<path d="M188.408 188.212
L188.111 188.307
" />
<path d="M188.111 188.307
L187.896 188.497
" />
<path d="M187.896 188.497
L187.777 188.688
" />
<path d="M187.777 188.688
L187.634 189.069
" />
<path d="M187.634 189.069
L187.599 189.354
" />
<path d="M187.599 189.354
L187.646 189.735
" />
<path d="M187.646 189.735
L187.718 189.926
" />
<path d="M187.718 189.926
L187.884 190.116
" />
<path d="M187.884 190.116
L188.158 190.212
" />
<path d="M188.158 190.212
L188.349 190.212
" />
<path d="M188.349 190.212
L188.646 190.116
" />
<path d="M188.646 190.116
L188.753 190.021
" />
<path d="M188.753 190.021
L188.837 189.354
" />
<path d="M188.837 189.354
L188.456 189.354
" />
<path d="M190.444 190.212
L190.575 189.164
" />
<path d="M190.575 189.164
L190.503 188.974
" />
<path d="M190.503 188.974
L190.325 188.878
" />
<path d="M190.325 188.878
L189.944 188.878
" />
<path d="M189.944 188.878
L189.742 188.974
" />
<path d="M190.456 190.116
L190.253 190.212
" />
<path d="M190.253 190.212
L189.777 190.212
" />
<path d="M189.777 190.212
L189.599 190.116
" />
<path d="M189.599 190.116
L189.527 189.926
" />
<path d="M189.527 189.926
L189.551 189.735
" />
<path d="M189.551 189.735
L189.670 189.545
" />
<path d="M189.670 189.545
L189.873 189.450
" />
<path d="M189.873 189.450
L190.349 189.450
" />
<path d="M190.349 189.450
L190.551 189.354
" />
<path d="M192.420 188.878
L192.218 190.497
" />
<path d="M192.218 190.497
L192.099 190.688
" />
<path d="M192.099 190.688
L191.992 190.783
" />
<path d="M191.992 190.783
L191.789 190.878
" />
<path d="M191.789 190.878
L191.503 190.878
" />
<path d="M191.503 190.878
L191.325 190.783
" />
<path d="M192.265 190.116
L192.063 190.212
" />
<path d="M192.063 190.212
L191.682 190.212
" />
<path d="M191.682 190.212
L191.503 190.116
" />
<path d="M191.503 190.116
L191.420 190.021
" />
<path d="M191.420 190.021
L191.349 189.831
" />
<path d="M191.349 189.831
L191.420 189.259
" />
<path d="M191.420 189.259
L191.539 189.069
" />
<path d="M191.539 189.069
L191.646 188.974
" />
<path d="M191.646 188.974
L191.849 188.878
" />
<path d="M191.849 188.878
L192.230 188.878
" />
<path d="M192.230 188.878
L192.408 188.974
" />
<path d="M194.230 188.878
L194.027 190.497
" />
<path d="M194.027 190.497
L193.908 190.688
" />
<path d="M193.908 190.688
L193.801 190.783
" />
<path d="M193.801 190.783
L193.599 190.878
" />
<path d="M193.599 190.878
L193.313 190.878
" />
<path d="M193.313 190.878
L193.134 190.783
" />
<path d="M194.075 190.116
L193.873 190.212
" />
<path d="M193.873 190.212
L193.492 190.212
" />
<path d="M193.492 190.212
L193.313 190.116
" />
<path d="M193.313 190.116
L193.230 190.021
" />
<path d="M193.230 190.021
L193.158 189.831
" />
<path d="M193.158 189.831
L193.230 189.259
" />
<path d="M193.230 189.259
L193.349 189.069
" />
<path d="M193.349 189.069
L193.456 188.974
" />
<path d="M193.456 188.974
L193.658 188.878
" />
<path d="M193.658 188.878
L194.039 188.878
" />
<path d="M194.039 188.878
L194.218 188.974
" />
<path d="M195.015 190.212
L195.182 188.878
" />
<path d="M195.265 188.212
L195.158 188.307
" />
<path d="M195.158 188.307
L195.242 188.402
" />
<path d="M195.242 188.402
L195.349 188.307
" />
<path d="M195.349 188.307
L195.265 188.212
" />
<path d="M195.265 188.212
L195.242 188.402
" />
<path d="M195.968 190.212
L196.134 188.878
" />
<path d="M196.111 189.069
L196.218 188.974
" />
<path d="M196.218 188.974
L196.420 188.878
" />
<path d="M196.420 188.878
L196.706 188.878
" />
<path d="M196.706 188.878
L196.884 188.974
" />
<path d="M196.884 188.974
L196.956 189.164
" />
<path d="M196.956 189.164
L196.825 190.212
" />
<path d="M196.956 189.164
L197.075 188.974
" />
<path d="M197.075 188.974
L197.277 188.878
" />
<path d="M197.277 188.878
L197.563 188.878
" />
<path d="M197.563 188.878
L197.742 188.974
" />
<path d="M197.742 188.974
L197.813 189.164
" />
<path d="M197.813 189.164
L197.682 190.212
" />
<path d="M199.492 190.212
L199.623 189.164
" />
<path d="M199.623 189.164
L199.551 188.974
" />
<path d="M199.551 188.974
L199.373 188.878
" />
<path d="M199.373 188.878
L198.992 188.878
" />
<path d="M198.992 188.878
L198.789 188.974
" />
<path d="M199.503 190.116
L199.301 190.212
" />
<path d="M199.301 190.212
L198.825 190.212
" />
<path d="M198.825 190.212
L198.646 190.116
" />
<path d="M198.646 190.116
L198.575 189.926
" />
<path d="M198.575 189.926
L198.599 189.735
" />
<path d="M198.599 189.735
L198.718 189.545
" />
<path d="M198.718 189.545
L198.920 189.450
" />
<path d="M198.920 189.450
L199.396 189.450
" />
<path d="M199.396 189.450
L199.599 189.354
" />
<path d="M200.325 188.878
L201.087 188.878
" />
<path d="M200.694 188.212
L200.480 189.926
" />
<path d="M200.480 189.926
L200.551 190.116
" />
<path d="M200.551 190.116
L200.730 190.212
" />
<path d="M200.730 190.212
L200.920 190.212
" />
<path d="M202.361 190.116
L202.158 190.212
" />
<path d="M202.158 190.212
L201.777 190.212
" />
<path d="M201.777 190.212
L201.599 190.116
" />
<path d="M201.599 190.116
L201.527 189.926
" />
<path d="M201.527 189.926
L201.623 189.164
" />
<path d="M201.623 189.164
L201.742 188.974
" />
<path d="M201.742 188.974
L201.944 188.878
" />
<path d="M201.944 188.878
L202.325 188.878
" />
<path d="M202.325 188.878
L202.503 188.974
" />
<path d="M202.503 188.974
L202.575 189.164
" />
<path d="M202.575 189.164
L202.551 189.354
" />
<path d="M202.551 189.354
L201.575 189.545
" />
<path d="M205.992 190.021
L205.884 190.116
" />
<path d="M205.884 190.116
L205.587 190.212
" />
<path d="M205.587 190.212
L205.396 190.212
" />
<path d="M205.396 190.212
L205.123 190.116
" />
<path d="M205.123 190.116
L204.956 189.926
" />
<path d="M204.956 189.926
L204.884 189.735
" />
<path d="M204.884 189.735
L204.837 189.354
" />
<path d="M204.837 189.354
L204.873 189.069
" />
<path d="M204.873 189.069
L205.015 188.688
" />
<path d="M205.015 188.688
L205.134 188.497
" />
<path d="M205.134 188.497
L205.349 188.307
" />
<path d="M205.349 188.307
L205.646 188.212
" />
<path d="M205.646 188.212
L205.837 188.212
" />
<path d="M205.837 188.212
L206.111 188.307
" />
<path d="M206.111 188.307
L206.194 188.402
" />
<path d="M207.111 190.212
L206.932 190.116
" />
<path d="M206.932 190.116
L206.849 190.021
" />
<path d="M206.849 190.021
L206.777 189.831
" />
<path d="M206.777 189.831
L206.849 189.259
" />
<path d="M206.849 189.259
L206.968 189.069
" />
<path d="M206.968 189.069
L207.075 188.974
" />
<path d="M207.075 188.974
L207.277 188.878
" />
<path d="M207.277 188.878
L207.563 188.878
" />
<path d="M207.563 188.878
L207.742 188.974
" />
<path d="M207.742 188.974
L207.825 189.069
" />
<path d="M207.825 189.069
L207.896 189.259
" />
<path d="M207.896 189.259
L207.825 189.831
" />
<path d="M207.825 189.831
L207.706 190.021
" />
<path d="M207.706 190.021
L207.599 190.116
" />
<path d="M207.599 190.116
L207.396 190.212
" />
<path d="M207.396 190.212
L207.111 190.212
" />
<path d="M208.801 188.878
L208.634 190.212
" />
<path d="M208.777 189.069
L208.884 188.974
" />
<path d="M208.884 188.974
L209.087 188.878
" />
<path d="M209.087 188.878
L209.373 188.878
" />
<path d="M209.373 188.878
L209.551 188.974
" />
<path d="M209.551 188.974
L209.623 189.164
" />
<path d="M209.623 189.164
L209.492 190.212
" />
<path d="M210.325 188.878
L211.087 188.878
" />
<path d="M210.694 188.212
L210.480 189.926
" />
<path d="M210.480 189.926
L210.551 190.116
" />
<path d="M210.551 190.116
L210.730 190.212
" />
<path d="M210.730 190.212
L210.920 190.212
" />
<path d="M211.587 190.212
L211.753 188.878
" />
<path d="M211.706 189.259
L211.825 189.069
" />
<path d="M211.825 189.069
L211.932 188.974
" />
<path d="M211.932 188.974
L212.134 188.878
" />
<path d="M212.134 188.878
L212.325 188.878
" />
<path d="M213.111 190.212
L212.932 190.116
" />
<path d="M212.932 190.116
L212.849 190.021
" />
<path d="M212.849 190.021
L212.777 189.831
" />
<path d="M212.777 189.831
L212.849 189.259
" />
<path d="M212.849 189.259
L212.968 189.069
" />
<path d="M212.968 189.069
L213.075 188.974
" />
<path d="M213.075 188.974
L213.277 188.878
" />
<path d="M213.277 188.878
L213.563 188.878
" />
<path d="M213.563 188.878
L213.742 188.974
" />
<path d="M213.742 188.974
L213.825 189.069
" />
<path d="M213.825 189.069
L213.896 189.259
" />
<path d="M213.896 189.259
L213.825 189.831
" />
<path d="M213.825 189.831
L213.706 190.021
" />
<path d="M213.706 190.021
L213.599 190.116
" />
<path d="M213.599 190.116
L213.396 190.212
" />
<path d="M213.396 190.212
L213.111 190.212
" />
<path d="M214.920 190.212
L214.742 190.116
" />
<path d="M214.742 190.116
L214.670 189.926
" />
<path d="M214.670 189.926
L214.884 188.212
" />
<path d="M215.968 190.212
L215.789 190.116
" />
<path d="M215.789 190.116
L215.718 189.926
" />
<path d="M215.718 189.926
L215.932 188.212
" />
<path d="M217.503 190.116
L217.301 190.212
" />
<path d="M217.301 190.212
L216.920 190.212
" />
<path d="M216.920 190.212
L216.742 190.116
" />
<path d="M216.742 190.116
L216.670 189.926
" />
<path d="M216.670 189.926
L216.765 189.164
" />
<path d="M216.765 189.164
L216.884 188.974
" />
<path d="M216.884 188.974
L217.087 188.878
" />
<path d="M217.087 188.878
L217.468 188.878
" />
<path d="M217.468 188.878
L217.646 188.974
" />
<path d="M217.646 188.974
L217.718 189.164
" />
<path d="M217.718 189.164
L217.694 189.354
" />
<path d="M217.694 189.354
L216.718 189.545
" />
<path d="M218.444 190.212
L218.611 188.878
" />
<path d="M218.563 189.259
L218.682 189.069
" />
<path d="M218.682 189.069
L218.789 188.974
" />
<path d="M218.789 188.974
L218.992 188.878
" />
<path d="M218.992 188.878
L219.182 188.878
" />
<path d="M221.206 190.212
L221.456 188.212
" />
<path d="M221.456 188.212
L222.218 188.212
" />
<path d="M222.218 188.212
L222.396 188.307
" />
<path d="M222.396 188.307
L222.480 188.402
" />
<path d="M222.480 188.402
L222.551 188.593
" />
<path d="M222.551 188.593
L222.515 188.878
" />
<path d="M222.515 188.878
L222.396 189.069
" />
<path d="M222.396 189.069
L222.289 189.164
" />
<path d="M222.289 189.164
L222.087 189.259
" />
<path d="M222.087 189.259
L221.325 189.259
" />
<path d="M224.373 190.021
L224.265 190.116
" />
<path d="M224.265 190.116
L223.968 190.212
" />
<path d="M223.968 190.212
L223.777 190.212
" />
<path d="M223.777 190.212
L223.503 190.116
" />
<path d="M223.503 190.116
L223.337 189.926
" />
<path d="M223.337 189.926
L223.265 189.735
" />
<path d="M223.265 189.735
L223.218 189.354
" />
<path d="M223.218 189.354
L223.253 189.069
" />
<path d="M223.253 189.069
L223.396 188.688
" />
<path d="M223.396 188.688
L223.515 188.497
" />
<path d="M223.515 188.497
L223.730 188.307
" />
<path d="M223.730 188.307
L224.027 188.212
" />
<path d="M224.027 188.212
L224.218 188.212
" />
<path d="M224.218 188.212
L224.492 188.307
" />
<path d="M224.492 188.307
L224.575 188.402
" />
<path d="M226.003 189.164
L226.277 189.259
" />
<path d="M226.277 189.259
L226.361 189.354
" />
<path d="M226.361 189.354
L226.432 189.545
" />
<path d="M226.432 189.545
L226.396 189.831
" />
<path d="M226.396 189.831
L226.277 190.021
" />
<path d="M226.277 190.021
L226.170 190.116
" />
<path d="M226.170 190.116
L225.968 190.212
" />
<path d="M225.968 190.212
L225.206 190.212
" />
<path d="M225.206 190.212
L225.456 188.212
" />
<path d="M225.456 188.212
L226.123 188.212
" />
<path d="M226.123 188.212
L226.301 188.307
" />
<path d="M226.301 188.307
L226.384 188.402
" />
<path d="M226.384 188.402
L226.456 188.593
" />
<path d="M226.456 188.593
L226.432 188.783
" />
<path d="M226.432 188.783
L226.313 188.974
" />
<path d="M226.313 188.974
L226.206 189.069
" />
<path d="M226.206 189.069
L226.003 189.164
" />
<path d="M226.003 189.164
L225.337 189.164
" />
</g></g>
<g style="fill:none; 
stroke:#000000; stroke-width:0.150; stroke-opacity:1; 
stroke-linecap:round; stroke-linejoin:round;">
<text x="178.002" y="186.457"
textLength="29.650" font-size="2.000" lengthAdjust="spacingAndGlyphs"
text-anchor="start" opacity="0">File: Gaggimate.kicad_pcb</text>
<g class="stroked-text"><desc>File: Gaggimate.kicad_pcb</desc>
<path d="M178.958 185.608
L178.458 185.608
" />
<path d="M178.458 186.393
L178.458 184.893
" />
<path d="M178.458 184.893
L179.172 184.893
" />
<path d="M179.744 186.393
L179.744 185.393
" />
<path d="M179.744 184.893
L179.672 184.965
" />
<path d="M179.672 184.965
L179.744 185.036
" />
<path d="M179.744 185.036
L179.815 184.965
" />
<path d="M179.815 184.965
L179.744 184.893
" />
<path d="M179.744 184.893
L179.744 185.036
" />
<path d="M180.672 186.393
L180.529 186.322
" />
<path d="M180.529 186.322
L180.458 186.179
" />
<path d="M180.458 186.179
L180.458 184.893
" />
<path d="M181.815 186.322
L181.672 186.393
" />
<path d="M181.672 186.393
L181.387 186.393
" />
<path d="M181.387 186.393
L181.244 186.322
" />
<path d="M181.244 186.322
L181.172 186.179
" />
<path d="M181.172 186.179
L181.172 185.608
" />
<path d="M181.172 185.608
L181.244 185.465
" />
<path d="M181.244 185.465
L181.387 185.393
" />
<path d="M181.387 185.393
L181.672 185.393
" />
<path d="M181.672 185.393
L181.815 185.465
" />
<path d="M181.815 185.465
L181.887 185.608
" />
<path d="M181.887 185.608
L181.887 185.750
" />
<path d="M181.887 185.750
L181.172 185.893
" />
<path d="M182.529 186.250
L182.601 186.322
" />
<path d="M182.601 186.322
L182.529 186.393
" />
<path d="M182.529 186.393
L182.458 186.322
" />
<path d="M182.458 186.322
L182.529 186.250
" />
<path d="M182.529 186.250
L182.529 186.393
" />
<path d="M182.529 185.465
L182.601 185.536
" />
<path d="M182.601 185.536
L182.529 185.608
" />
<path d="M182.529 185.608
L182.458 185.536
" />
<path d="M182.458 185.536
L182.529 185.465
" />
<path d="M182.529 185.465
L182.529 185.608
" />
<path d="M185.172 184.965
L185.029 184.893
" />
<path d="M185.029 184.893
L184.815 184.893
" />
<path d="M184.815 184.893
L184.601 184.965
" />
<path d="M184.601 184.965
L184.458 185.108
" />
<path d="M184.458 185.108
L184.387 185.250
" />
<path d="M184.387 185.250
L184.315 185.536
" />
<path d="M184.315 185.536
L184.315 185.750
" />
<path d="M184.315 185.750
L184.387 186.036
" />
<path d="M184.387 186.036
L184.458 186.179
" />
<path d="M184.458 186.179
L184.601 186.322
" />
<path d="M184.601 186.322
L184.815 186.393
" />
<path d="M184.815 186.393
L184.958 186.393
" />
<path d="M184.958 186.393
L185.172 186.322
" />
<path d="M185.172 186.322
L185.244 186.250
" />
<path d="M185.244 186.250
L185.244 185.750
" />
<path d="M185.244 185.750
L184.958 185.750
" />
<path d="M186.529 186.393
L186.529 185.608
" />
<path d="M186.529 185.608
L186.458 185.465
" />
<path d="M186.458 185.465
L186.315 185.393
" />
<path d="M186.315 185.393
L186.029 185.393
" />
<path d="M186.029 185.393
L185.887 185.465
" />
<path d="M186.529 186.322
L186.387 186.393
" />
<path d="M186.387 186.393
L186.029 186.393
" />
<path d="M186.029 186.393
L185.887 186.322
" />
<path d="M185.887 186.322
L185.815 186.179
" />
<path d="M185.815 186.179
L185.815 186.036
" />
<path d="M185.815 186.036
L185.887 185.893
" />
<path d="M185.887 185.893
L186.029 185.822
" />
<path d="M186.029 185.822
L186.387 185.822
" />
<path d="M186.387 185.822
L186.529 185.750
" />
<path d="M187.887 185.393
L187.887 186.608
" />
<path d="M187.887 186.608
L187.815 186.750
" />
<path d="M187.815 186.750
L187.744 186.822
" />
<path d="M187.744 186.822
L187.601 186.893
" />
<path d="M187.601 186.893
L187.387 186.893
" />
<path d="M187.387 186.893
L187.244 186.822
" />
<path d="M187.887 186.322
L187.744 186.393
" />
<path d="M187.744 186.393
L187.458 186.393
" />
<path d="M187.458 186.393
L187.315 186.322
" />
<path d="M187.315 186.322
L187.244 186.250
" />
<path d="M187.244 186.250
L187.172 186.108
" />
<path d="M187.172 186.108
L187.172 185.679
" />
<path d="M187.172 185.679
L187.244 185.536
" />
<path d="M187.244 185.536
L187.315 185.465
" />
<path d="M187.315 185.465
L187.458 185.393
" />
<path d="M187.458 185.393
L187.744 185.393
" />
<path d="M187.744 185.393
L187.887 185.465
" />
<path d="M189.244 185.393
L189.244 186.608
" />
<path d="M189.244 186.608
L189.172 186.750
" />
<path d="M189.172 186.750
L189.101 186.822
" />
<path d="M189.101 186.822
L188.958 186.893
" />
<path d="M188.958 186.893
L188.744 186.893
" />
<path d="M188.744 186.893
L188.601 186.822
" />
<path d="M189.244 186.322
L189.101 186.393
" />
<path d="M189.101 186.393
L188.815 186.393
" />
<path d="M188.815 186.393
L188.672 186.322
" />
<path d="M188.672 186.322
L188.601 186.250
" />
<path d="M188.601 186.250
L188.529 186.108
" />
<path d="M188.529 186.108
L188.529 185.679
" />
<path d="M188.529 185.679
L188.601 185.536
" />
<path d="M188.601 185.536
L188.672 185.465
" />
<path d="M188.672 185.465
L188.815 185.393
" />
<path d="M188.815 185.393
L189.101 185.393
" />
<path d="M189.101 185.393
L189.244 185.465
" />
<path d="M189.958 186.393
L189.958 185.393
" />
<path d="M189.958 184.893
L189.887 184.965
" />
<path d="M189.887 184.965
L189.958 185.036
" />
<path d="M189.958 185.036
L190.029 184.965
" />
<path d="M190.029 184.965
L189.958 184.893
" />
<path d="M189.958 184.893
L189.958 185.036
" />
<path d="M190.672 186.393
L190.672 185.393
" />
<path d="M190.672 185.536
L190.744 185.465
" />
<path d="M190.744 185.465
L190.887 185.393
" />
<path d="M190.887 185.393
L191.101 185.393
" />
<path d="M191.101 185.393
L191.244 185.465
" />
<path d="M191.244 185.465
L191.315 185.608
" />
<path d="M191.315 185.608
L191.315 186.393
" />
<path d="M191.315 185.608
L191.387 185.465
" />
<path d="M191.387 185.465
L191.529 185.393
" />
<path d="M191.529 185.393
L191.744 185.393
" />
<path d="M191.744 185.393
L191.887 185.465
" />
<path d="M191.887 185.465
L191.958 185.608
" />
<path d="M191.958 185.608
L191.958 186.393
" />
<path d="M193.315 186.393
L193.315 185.608
" />
<path d="M193.315 185.608
L193.244 185.465
" />
<path d="M193.244 185.465
L193.101 185.393
" />
<path d="M193.101 185.393
L192.815 185.393
" />
<path d="M192.815 185.393
L192.672 185.465
" />
<path d="M193.315 186.322
L193.172 186.393
" />
<path d="M193.172 186.393
L192.815 186.393
" />
<path d="M192.815 186.393
L192.672 186.322
" />
<path d="M192.672 186.322
L192.601 186.179
" />
<path d="M192.601 186.179
L192.601 186.036
" />
<path d="M192.601 186.036
L192.672 185.893
" />
<path d="M192.672 185.893
L192.815 185.822
" />
<path d="M192.815 185.822
L193.172 185.822
" />
<path d="M193.172 185.822
L193.315 185.750
" />
<path d="M193.815 185.393
L194.387 185.393
" />
<path d="M194.029 184.893
L194.029 186.179
" />
<path d="M194.029 186.179
L194.101 186.322
" />
<path d="M194.101 186.322
L194.244 186.393
" />
<path d="M194.244 186.393
L194.387 186.393
" />
<path d="M195.458 186.322
L195.315 186.393
" />
<path d="M195.315 186.393
L195.029 186.393
" />
<path d="M195.029 186.393
L194.887 186.322
" />
<path d="M194.887 186.322
L194.815 186.179
" />
<path d="M194.815 186.179
L194.815 185.608
" />
<path d="M194.815 185.608
L194.887 185.465
" />
<path d="M194.887 185.465
L195.029 185.393
" />
<path d="M195.029 185.393
L195.315 185.393
" />
<path d="M195.315 185.393
L195.458 185.465
" />
<path d="M195.458 185.465
L195.529 185.608
" />
<path d="M195.529 185.608
L195.529 185.750
" />
<path d="M195.529 185.750
L194.815 185.893
" />
<path d="M196.172 186.250
L196.244 186.322
" />
<path d="M196.244 186.322
L196.172 186.393
" />
<path d="M196.172 186.393
L196.101 186.322
" />
<path d="M196.101 186.322
L196.172 186.250
" />
<path d="M196.172 186.250
L196.172 186.393
" />
<path d="M196.887 186.393
L196.887 184.893
" />
<path d="M197.029 185.822
L197.458 186.393
" />
<path d="M197.458 185.393
L196.887 185.965
" />
<path d="M198.101 186.393
L198.101 185.393
" />
<path d="M198.101 184.893
L198.029 184.965
" />
<path d="M198.029 184.965
L198.101 185.036
" />
<path d="M198.101 185.036
L198.172 184.965
" />
<path d="M198.172 184.965
L198.101 184.893
" />
<path d="M198.101 184.893
L198.101 185.036
" />
<path d="M199.458 186.322
L199.315 186.393
" />
<path d="M199.315 186.393
L199.029 186.393
" />
<path d="M199.029 186.393
L198.887 186.322
" />
<path d="M198.887 186.322
L198.815 186.250
" />
<path d="M198.815 186.250
L198.744 186.108
" />
<path d="M198.744 186.108
L198.744 185.679
" />
<path d="M198.744 185.679
L198.815 185.536
" />
<path d="M198.815 185.536
L198.887 185.465
" />
<path d="M198.887 185.465
L199.029 185.393
" />
<path d="M199.029 185.393
L199.315 185.393
" />
<path d="M199.315 185.393
L199.458 185.465
" />
<path d="M200.744 186.393
L200.744 185.608
" />
<path d="M200.744 185.608
L200.672 185.465
" />
<path d="M200.672 185.465
L200.529 185.393
" />
<path d="M200.529 185.393
L200.244 185.393
" />
<path d="M200.244 185.393
L200.101 185.465
" />
<path d="M200.744 186.322
L200.601 186.393
" />
<path d="M200.601 186.393
L200.244 186.393
" />
<path d="M200.244 186.393
L200.101 186.322
" />
<path d="M200.101 186.322
L200.029 186.179
" />
<path d="M200.029 186.179
L200.029 186.036
" />
<path d="M200.029 186.036
L200.101 185.893
" />
<path d="M200.101 185.893
L200.244 185.822
" />
<path d="M200.244 185.822
L200.601 185.822
" />
<path d="M200.601 185.822
L200.744 185.750
" />
<path d="M202.101 186.393
L202.101 184.893
" />
<path d="M202.101 186.322
L201.958 186.393
" />
<path d="M201.958 186.393
L201.672 186.393
" />
<path d="M201.672 186.393
L201.529 186.322
" />
<path d="M201.529 186.322
L201.458 186.250
" />
<path d="M201.458 186.250
L201.387 186.108
" />
<path d="M201.387 186.108
L201.387 185.679
" />
<path d="M201.387 185.679
L201.458 185.536
" />
<path d="M201.458 185.536
L201.529 185.465
" />
<path d="M201.529 185.465
L201.672 185.393
" />
<path d="M201.672 185.393
L201.958 185.393
" />
<path d="M201.958 185.393
L202.101 185.465
" />
<path d="M202.458 186.536
L203.601 186.536
" />
<path d="M203.958 185.393
L203.958 186.893
" />
<path d="M203.958 185.465
L204.101 185.393
" />
<path d="M204.101 185.393
L204.387 185.393
" />
<path d="M204.387 185.393
L204.529 185.465
" />
<path d="M204.529 185.465
L204.601 185.536
" />
<path d="M204.601 185.536
L204.672 185.679
" />
<path d="M204.672 185.679
L204.672 186.108
" />
<path d="M204.672 186.108
L204.601 186.250
" />
<path d="M204.601 186.250
L204.529 186.322
" />
<path d="M204.529 186.322
L204.387 186.393
" />
<path d="M204.387 186.393
L204.101 186.393
" />
<path d="M204.101 186.393
L203.958 186.322
" />
<path d="M205.958 186.322
L205.815 186.393
" />
<path d="M205.815 186.393
L205.529 186.393
" />
<path d="M205.529 186.393
L205.387 186.322
" />
<path d="M205.387 186.322
L205.315 186.250
" />
<path d="M205.315 186.250
L205.244 186.108
" />
<path d="M205.244 186.108
L205.244 185.679
" />
<path d="M205.244 185.679
L205.315 185.536
" />
<path d="M205.315 185.536
L205.387 185.465
" />
<path d="M205.387 185.465
L205.529 185.393
" />
<path d="M205.529 185.393
L205.815 185.393
" />
<path d="M205.815 185.393
L205.958 185.465
" />
<path d="M206.601 186.393
L206.601 184.893
" />
<path d="M206.601 185.465
L206.744 185.393
" />
<path d="M206.744 185.393
L207.029 185.393
" />
<path d="M207.029 185.393
L207.172 185.465
" />
<path d="M207.172 185.465
L207.244 185.536
" />
<path d="M207.244 185.536
L207.315 185.679
" />
<path d="M207.315 185.679
L207.315 186.108
" />
<path d="M207.315 186.108
L207.244 186.250
" />
<path d="M207.244 186.250
L207.172 186.322
" />
<path d="M207.172 186.322
L207.029 186.393
" />
<path d="M207.029 186.393
L206.744 186.393
" />
<path d="M206.744 186.393
L206.601 186.322
" />
</g></g>
<g style="fill:none; 
stroke:#000000; stroke-width:0.150; stroke-opacity:1; 
stroke-linecap:round; stroke-linejoin:round;">
<path d="M177.002 181.507
L285.002 181.507
" />
</g>
<g style="fill:none; 
stroke:#000000; stroke-width:0.150; stroke-opacity:1; 
stroke-linecap:round; stroke-linejoin:round;">
<text x="178.002" y="183.757"
textLength="8.221" font-size="2.000" lengthAdjust="spacingAndGlyphs"
text-anchor="start" opacity="0">Sheet: </text>
<g class="stroked-text"><desc>Sheet: </desc>
<path d="M178.387 183.622
L178.601 183.693
" />
<path d="M178.601 183.693
L178.958 183.693
" />
<path d="M178.958 183.693
L179.101 183.622
" />
<path d="M179.101 183.622
L179.172 183.550
" />
<path d="M179.172 183.550
L179.244 183.408
" />
<path d="M179.244 183.408
L179.244 183.265
" />
<path d="M179.244 183.265
L179.172 183.122
" />
<path d="M179.172 183.122
L179.101 183.050
" />
<path d="M179.101 183.050
L178.958 182.979
" />
<path d="M178.958 182.979
L178.672 182.908
" />
<path d="M178.672 182.908
L178.529 182.836
" />
<path d="M178.529 182.836
L178.458 182.765
" />
<path d="M178.458 182.765
L178.387 182.622
" />
<path d="M178.387 182.622
L178.387 182.479
" />
<path d="M178.387 182.479
L178.458 182.336
" />
<path d="M178.458 182.336
L178.529 182.265
" />
<path d="M178.529 182.265
L178.672 182.193
" />
<path d="M178.672 182.193
L179.029 182.193
" />
<path d="M179.029 182.193
L179.244 182.265
" />
<path d="M179.887 183.693
L179.887 182.193
" />
<path d="M180.529 183.693
L180.529 182.908
" />
<path d="M180.529 182.908
L180.458 182.765
" />
<path d="M180.458 182.765
L180.315 182.693
" />
<path d="M180.315 182.693
L180.101 182.693
" />
<path d="M180.101 182.693
L179.958 182.765
" />
<path d="M179.958 182.765
L179.887 182.836
" />
<path d="M181.815 183.622
L181.672 183.693
" />
<path d="M181.672 183.693
L181.387 183.693
" />
<path d="M181.387 183.693
L181.244 183.622
" />
<path d="M181.244 183.622
L181.172 183.479
" />
<path d="M181.172 183.479
L181.172 182.908
" />
<path d="M181.172 182.908
L181.244 182.765
" />
<path d="M181.244 182.765
L181.387 182.693
" />
<path d="M181.387 182.693
L181.672 182.693
" />
<path d="M181.672 182.693
L181.815 182.765
" />
<path d="M181.815 182.765
L181.887 182.908
" />
<path d="M181.887 182.908
L181.887 183.050
" />
<path d="M181.887 183.050
L181.172 183.193
" />
<path d="M183.101 183.622
L182.958 183.693
" />
<path d="M182.958 183.693
L182.672 183.693
" />
<path d="M182.672 183.693
L182.529 183.622
" />
<path d="M182.529 183.622
L182.458 183.479
" />
<path d="M182.458 183.479
L182.458 182.908
" />
<path d="M182.458 182.908
L182.529 182.765
" />
<path d="M182.529 182.765
L182.672 182.693
" />
<path d="M182.672 182.693
L182.958 182.693
" />
<path d="M182.958 182.693
L183.101 182.765
" />
<path d="M183.101 182.765
L183.172 182.908
" />
<path d="M183.172 182.908
L183.172 183.050
" />
<path d="M183.172 183.050
L182.458 183.193
" />
<path d="M183.601 182.693
L184.172 182.693
" />
<path d="M183.815 182.193
L183.815 183.479
" />
<path d="M183.815 183.479
L183.887 183.622
" />
<path d="M183.887 183.622
L184.029 183.693
" />
<path d="M184.029 183.693
L184.172 183.693
" />
<path d="M184.672 183.550
L184.744 183.622
" />
<path d="M184.744 183.622
L184.672 183.693
" />
<path d="M184.672 183.693
L184.601 183.622
" />
<path d="M184.601 183.622
L184.672 183.550
" />
<path d="M184.672 183.550
L184.672 183.693
" />
<path d="M184.672 182.765
L184.744 182.836
" />
<path d="M184.744 182.836
L184.672 182.908
" />
<path d="M184.672 182.908
L184.601 182.836
" />
<path d="M184.601 182.836
L184.672 182.765
" />
<path d="M184.672 182.765
L184.672 182.908
" />
</g></g>
<g style="fill:none; 
stroke:#000000; stroke-width:0.300; stroke-opacity:1; 
stroke-linecap:round; stroke-linejoin:round;">
<text x="178.002" y="180.757"
textLength="0.900" font-size="2.000" lengthAdjust="spacingAndGlyphs"
text-anchor="start" opacity="0"></text>
<g class="stroked-text"><desc></desc>
</g></g>
<g style="fill:none; 
stroke:#000000; stroke-width:0.150; stroke-opacity:1; 
stroke-linecap:round; stroke-linejoin:round;">
<text x="178.002" y="177.757"
textLength="0.450" font-size="2.000" lengthAdjust="spacingAndGlyphs"
text-anchor="start" opacity="0"></text>
<g class="stroked-text"><desc></desc>
</g></g>
<g style="fill:none; 
stroke:#000000; stroke-width:0.150; stroke-opacity:1; 
stroke-linecap:round; stroke-linejoin:round;">
<text x="178.002" y="174.757"
textLength="0.450" font-size="2.000" lengthAdjust="spacingAndGlyphs"
text-anchor="start" opacity="0"></text>
<g class="stroked-text"><desc></desc>
</g></g>
<g style="fill:none; 
stroke:#000000; stroke-width:0.150; stroke-opacity:1; 
stroke-linecap:round; stroke-linejoin:round;">
<text x="178.002" y="171.757"
textLength="0.450" font-size="2.000" lengthAdjust="spacingAndGlyphs"
text-anchor="start" opacity="0"></text>
<g class="stroked-text"><desc></desc>
</g></g>
<g style="fill:none; 
stroke:#000000; stroke-width:0.150; stroke-opacity:1; 
stroke-linecap:round; stroke-linejoin:round;">
<text x="178.002" y="168.757"
textLength="0.450" font-size="2.000" lengthAdjust="spacingAndGlyphs"
text-anchor="start" opacity="0"></text>
<g class="stroked-text"><desc></desc>
</g></g>
<g style="fill:none; 
stroke:#000000; stroke-width:0.150; stroke-opacity:1; 
stroke-linecap:round; stroke-linejoin:round;">
<path d="M197.002 191.507
L197.002 194.507
" />
</g>
<g style="fill:none; 
stroke:#000000; stroke-width:0.150; stroke-opacity:1; 
stroke-linecap:round; stroke-linejoin:round;">
<path d="M261.002 191.507
L261.002 198.007
" />
</g>
<g style="fill:none; 
stroke:#000000; stroke-width:0.200; stroke-opacity:1; 
stroke-linecap:round; stroke-linejoin:round;">
<path d="M235.800 69.000 A1.000 1.000 0.0 0 0 234.800 70.000" />
<path d="M203.300 74.000 A2.000 2.000 0.0 0 0 207.300 74.000" />
<path d="M218.100 70.000
L218.100 74.000
" />
<path d="M243.200 93.100 A3.500 3.500 0.0 0 0 246.700 89.600" />
<path d="M242.800 70.000 A1.000 1.000 0.0 0 0 241.800 69.000" />
<path d="M208.300 69.000 A1.000 1.000 0.0 0 0 207.300 70.000" />
<path d="M161.700 29.600
L161.700 90.100
" />
<path d="M220.100 74.000
L220.100 70.000
" />
<path d="M161.700 90.100 A3.000 3.000 0.0 0 0 164.700 93.100" />
<path d="M203.300 70.000 A1.000 1.000 0.0 0 0 202.300 69.000" />
<path d="M236.800 74.000 A2.000 2.000 0.0 0 0 240.800 74.000" />
<path d="M202.300 69.000 A1.000 1.000 0.0 0 0 201.300 70.000" />
<path d="M222.100 78.000 A4.000 4.000 0.0 0 0 226.100 74.000" />
<path d="M201.300 70.000
L201.300 74.000
" />
<path d="M207.300 74.000
L207.300 70.000
" />
<path d="M209.300 74.000
L209.300 70.000
" />
<path d="M201.300 74.000 A4.000 4.000 0.0 0 0 205.300 78.000" />
<path d="M218.100 74.000 A4.000 4.000 0.0 0 0 222.100 78.000" />
<path d="M236.800 74.000
L236.800 70.000
" />
<path d="M238.800 78.000 A4.000 4.000 0.0 0 0 242.800 74.000" />
<path d="M234.800 74.000 A4.000 4.000 0.0 0 0 238.800 78.000" />
<path d="M246.700 89.600
L246.700 29.600
" />
<path d="M205.300 78.000 A4.000 4.000 0.0 0 0 209.300 74.000" />
<path d="M240.800 74.000
L240.800 70.000
" />
<path d="M241.800 69.000 A1.000 1.000 0.0 0 0 240.800 70.000" />
<path d="M164.700 93.100
L243.200 93.100
" />
<path d="M246.700 29.600 A3.500 3.500 0.0 0 0 243.200 26.100" />
<path d="M209.300 70.000 A1.000 1.000 0.0 0 0 208.300 69.000" />
<path d="M203.300 74.000
L203.300 70.000
" />
<path d="M236.800 70.000 A1.000 1.000 0.0 0 0 235.800 69.000" />
<path d="M220.100 70.000 A1.000 1.000 0.0 0 0 219.100 69.000" />
<path d="M220.100 74.000 A2.000 2.000 0.0 0 0 224.100 74.000" />
<path d="M242.800 74.000
L242.800 70.000
" />
<path d="M225.100 69.000 A1.000 1.000 0.0 0 0 224.100 70.000" />
<path d="M224.100 74.000
L224.100 70.000
" />
<path d="M226.100 74.000
L226.100 70.000
" />
<path d="M219.100 69.000 A1.000 1.000 0.0 0 0 218.100 70.000" />
<path d="M226.100 70.000 A1.000 1.000 0.0 0 0 225.100 69.000" />
<path d="M165.200 26.100 A3.500 3.500 0.0 0 0 161.700 29.600" />
<path d="M243.200 26.100
L165.200 26.100
" />
<path d="M234.800 70.000
L234.800 74.000
" />
<path d="M235.800 69.000 A1.000 1.000 0.0 0 0 234.800 70.000" />
<path d="M203.300 74.000 A2.000 2.000 0.0 0 0 207.300 74.000" />
<path d="M218.100 70.000
L218.100 74.000
" />
<path d="M243.200 93.100 A3.500 3.500 0.0 0 0 246.700 89.600" />
<path d="M242.800 70.000 A1.000 1.000 0.0 0 0 241.800 69.000" />
<path d="M208.300 69.000 A1.000 1.000 0.0 0 0 207.300 70.000" />
<path d="M161.700 29.600
L161.700 90.100
" />
<path d="M220.100 74.000
L220.100 70.000
" />
<path d="M161.700 90.100 A3.000 3.000 0.0 0 0 164.700 93.100" />
<path d="M203.300 70.000 A1.000 1.000 0.0 0 0 202.300 69.000" />
<path d="M236.800 74.000 A2.000 2.000 0.0 0 0 240.800 74.000" />
<path d="M202.300 69.000 A1.000 1.000 0.0 0 0 201.300 70.000" />
<path d="M222.100 78.000 A4.000 4.000 0.0 0 0 226.100 74.000" />
<path d="M201.300 70.000
L201.300 74.000
" />
<path d="M207.300 74.000
L207.300 70.000
" />
<path d="M209.300 74.000
L209.300 70.000
" />
<path d="M201.300 74.000 A4.000 4.000 0.0 0 0 205.300 78.000" />
<path d="M218.100 74.000 A4.000 4.000 0.0 0 0 222.100 78.000" />
<path d="M236.800 74.000
L236.800 70.000
" />
<path d="M238.800 78.000 A4.000 4.000 0.0 0 0 242.800 74.000" />
<path d="M234.800 74.000 A4.000 4.000 0.0 0 0 238.800 78.000" />
<path d="M246.700 89.600
L246.700 29.600
" />
<path d="M205.300 78.000 A4.000 4.000 0.0 0 0 209.300 74.000" />
<path d="M240.800 74.000
L240.800 70.000
" />
<path d="M241.800 69.000 A1.000 1.000 0.0 0 0 240.800 70.000" />
<path d="M164.700 93.100
L243.200 93.100
" />
<path d="M246.700 29.600 A3.500 3.500 0.0 0 0 243.200 26.100" />
<path d="M209.300 70.000 A1.000 1.000 0.0 0 0 208.300 69.000" />
<path d="M203.300 74.000
L203.300 70.000
" />
<path d="M236.800 70.000 A1.000 1.000 0.0 0 0 235.800 69.000" />
<path d="M220.100 70.000 A1.000 1.000 0.0 0 0 219.100 69.000" />
<path d="M220.100 74.000 A2.000 2.000 0.0 0 0 224.100 74.000" />
<path d="M242.800 74.000
L242.800 70.000
" />
<path d="M225.100 69.000 A1.000 1.000 0.0 0 0 224.100 70.000" />
<path d="M224.100 74.000
L224.100 70.000
" />
<path d="M226.100 74.000
L226.100 70.000
" />
<path d="M219.100 69.000 A1.000 1.000 0.0 0 0 218.100 70.000" />
<path d="M226.100 70.000 A1.000 1.000 0.0 0 0 225.100 69.000" />
<path d="M165.200 26.100 A3.500 3.500 0.0 0 0 161.700 29.600" />
<path d="M243.200 26.100
L165.200 26.100
" />
<path d="M234.800 70.000
L234.800 74.000
" />
</g> 
</svg>
